<svg width="43" height="35" viewBox="0 0 43 35" fill="none" xmlns="http://www.w3.org/2000/svg">
<g id="Group 1626">
<path id="Vector" d="M21.9091 10.3204C21.8925 6.22919 20.3364 1.26693 13.5804 1.04273C6.13822 0.418021 2.07861 6.2653 1.3261 9.78398C-0.0414317 15.5817 3.27435 19.7601 4.22928 20.6989C7.93829 24.0334 11.2668 26.6394 12.533 27.7219C12.939 28.0627 16.7174 31.1131 17.3728 31.6763C17.313 31.6674 18.2514 32.4605 19.0078 33.1099C20.2694 34.2904 21.2922 34.0467 21.7958 33.0471C21.8114 33.0143 21.8243 32.9802 21.8345 32.9454C22.0613 32.221 21.8668 24.3633 21.9393 24.0553" stroke="#333152" stroke-miterlimit="10"/>
<path id="Vector_2" d="M21.8949 10.1465V10.5149C22.1393 10.5149 22.3775 10.6023 22.5489 10.7544C22.7377 10.9223 22.8442 11.1643 22.8563 11.4554C22.812 12.1554 22.3212 12.4038 21.9136 12.4038C21.6694 12.4038 21.431 12.3165 21.2598 12.1643C21.0708 11.9965 20.9646 11.7544 20.9524 11.4633C20.9965 10.7633 21.4864 10.5149 21.8949 10.5149V10.1465V10.1465ZM21.8949 10.1465C21.2613 10.1465 20.63 10.5731 20.5828 11.4593C20.6099 12.3227 21.2631 12.7722 21.9136 12.7722C22.5474 12.7722 23.1787 12.3456 23.2258 11.4593C23.1988 10.596 22.5456 10.1465 21.8949 10.1465V10.1465Z" fill="#333152"/>
<path id="Vector_3" d="M22.5286 11.4591C22.4753 12.3228 21.2996 12.2441 21.281 11.4591C21.3343 10.5957 22.5101 10.6743 22.5286 11.4591Z" fill="#FF454E"/>
<path id="Vector_4" d="M22.4927 4.41094C23.0339 3.84441 23.6361 3.33911 24.2881 2.90417C24.9495 2.46201 25.6543 2.08849 26.3918 1.78943C28.6683 0.868875 31.1705 0.656958 33.5699 1.18149C33.973 1.27043 34.3713 1.38019 34.763 1.51033C34.8616 1.54202 34.9588 1.5772 35.0563 1.61202C35.1537 1.64684 35.2502 1.68442 35.3471 1.7209C35.3956 1.73932 35.4434 1.7594 35.4914 1.77911L35.6349 1.83862C35.7303 1.87933 35.825 1.92189 35.92 1.96371C36.6791 2.30982 37.3978 2.73833 38.063 3.24148C38.3959 3.49409 38.7142 3.76553 39.016 4.05447C39.3182 4.34418 39.604 4.65047 39.8721 4.9719C40.1393 5.2938 40.3885 5.63015 40.6187 5.97943C41.3013 7.0253 41.8121 8.17337 42.1318 9.38021C42.553 10.9715 42.6516 12.6307 42.4221 14.2605C42.3667 14.6638 42.2883 15.0633 42.1934 15.4579C42.0986 15.8526 41.9831 16.2407 41.8489 16.6219C41.5839 17.3814 41.2428 18.1122 40.8307 18.8033C40.4229 19.4858 39.9464 20.125 39.4085 20.7109C38.878 21.2876 38.2859 21.8048 37.643 22.2532C38.1423 21.6582 38.5996 21.0433 38.9981 20.399C39.3929 19.7606 39.7346 19.091 40.0199 18.3969C40.5776 17.0354 40.9009 15.5895 40.9761 14.1205C41.0471 12.6714 40.8711 11.2228 40.4471 9.86195C40.023 8.50109 39.3511 7.22994 38.4521 6.14836C38.0024 5.60762 37.4979 5.11478 36.9466 4.6777C36.3911 4.23941 35.7934 3.85718 35.1624 3.53661C33.8947 2.89459 32.4921 2.49261 31.0474 2.34394C30.3207 2.26898 29.5888 2.25665 28.86 2.3071C28.1218 2.3585 27.3892 2.4719 26.67 2.64607C25.9396 2.82311 25.225 3.06002 24.5336 3.35441C23.8282 3.65614 23.1461 4.00927 22.4927 4.41094V4.41094Z" fill="#FF454E"/>
<path id="Vector_5" d="M33.2773 13.3537H26.9043V7.09283C26.9043 6.94626 26.846 6.80568 26.7421 6.70204C26.6383 6.59839 26.4975 6.54016 26.3507 6.54016H21.9331C21.9822 6.70725 22.0283 6.87711 22.0704 7.05028C22.1176 7.24506 22.1607 7.44347 22.1996 7.64551H25.7979V13.9064C25.7979 14.0529 25.8562 14.1935 25.96 14.2972C26.0638 14.4008 26.2046 14.459 26.3514 14.459H32.7237V21.9546H26.3507C26.2039 21.9546 26.0631 22.0128 25.9593 22.1164C25.8554 22.2201 25.7971 22.3607 25.7971 22.5072V28.7681H22.4917C22.4939 29.1423 22.4952 29.5146 22.4954 29.8735H26.3507C26.4975 29.8735 26.6383 29.8152 26.7421 29.7116C26.846 29.6079 26.9043 29.4674 26.9043 29.3208V23.0599H33.2773C33.4242 23.0599 33.565 23.0017 33.6688 22.898C33.7726 22.7944 33.8309 22.6538 33.8309 22.5072V13.9064C33.8309 13.7598 33.7726 13.6192 33.6688 13.5156C33.565 13.4119 33.4242 13.3537 33.2773 13.3537Z" fill="#333152"/>
<path id="Vector_6" d="M18.16 22.5072C18.16 22.3607 18.1017 22.2201 17.9979 22.1164C17.8941 22.0128 17.7532 21.9546 17.6064 21.9546H11.2334V14.459H17.6064C17.7532 14.459 17.8941 14.4008 17.9979 14.2972C18.1017 14.1935 18.16 14.0529 18.16 13.9064V7.64551H21.0971C21.0173 7.27159 20.9161 6.90254 20.794 6.54016H17.6064C17.4596 6.54016 17.3188 6.59839 17.215 6.70204C17.1112 6.80568 17.0528 6.94626 17.0528 7.09283V13.3537H10.6798C10.533 13.3537 10.3922 13.4119 10.2884 13.5156C10.1845 13.6192 10.1262 13.7598 10.1262 13.9064V22.5072C10.1262 22.6538 10.1845 22.7944 10.2884 22.898C10.3922 23.0017 10.533 23.0599 10.6798 23.0599H17.0528V29.3208C17.0528 29.4674 17.1112 29.6079 17.215 29.7116C17.3188 29.8152 17.4596 29.8735 17.6064 29.8735H21.4243C21.4243 29.5151 21.4228 29.1426 21.4206 28.7681H18.16V22.5072Z" fill="#333152"/>
<path id="Vector_7" d="M18.6394 20.1189C18.477 19.6012 18.3033 19.1257 18.15 18.7063C17.8536 17.8942 17.6193 17.2529 17.608 16.7273C17.596 16.1363 17.8754 15.7366 18.4875 15.4691L18.5102 15.4591H18.5351C19.4105 15.43 19.4417 15.4319 19.5347 15.4378C19.6085 15.4424 19.7314 15.4499 20.5287 15.4411L20.5315 15.699C19.7248 15.708 19.6008 15.7003 19.5186 15.6951C19.4365 15.69 19.4079 15.6881 18.5687 15.7161C18.067 15.9414 17.8566 16.2437 17.8662 16.7229C17.876 17.2058 18.1037 17.8294 18.3921 18.6186C18.5462 19.0408 18.7209 19.5191 18.8852 20.0426L18.6394 20.1189Z" fill="#333152"/>
<path id="Vector_8" d="M25.2374 20.1189L24.9908 20.0417C25.1551 19.5183 25.3298 19.0399 25.4839 18.6178C25.7721 17.8286 26.0006 17.205 26.0096 16.7222C26.0194 16.2432 25.809 15.9407 25.3071 15.7154C24.4686 15.6874 24.438 15.6894 24.3574 15.6944C24.2767 15.6994 24.1512 15.7071 23.3445 15.6983L23.3473 15.4403C24.1446 15.4492 24.2677 15.4414 24.3413 15.437C24.4336 15.4311 24.4655 15.4293 25.3409 15.4584H25.3658L25.3885 15.4683C26.0004 15.7356 26.28 16.1356 26.268 16.7266C26.2573 17.2522 26.0231 17.8935 25.7266 18.7053C25.5734 19.1241 25.3998 19.6003 25.2374 20.1189Z" fill="#333152"/>
<path id="Vector_9" d="M21.9101 24.3927H21.9027C21.3165 24.3898 20.7535 24.0223 20.182 23.269C19.6602 22.5818 19.1261 21.5675 18.5491 20.1681C18.5376 20.1402 18.5317 20.1102 18.5317 20.0799C18.5318 20.0497 18.5378 20.0198 18.5495 19.9918C18.5611 19.9639 18.5782 19.9386 18.5996 19.9172C18.6211 19.8959 18.6466 19.879 18.6746 19.8675C18.7026 19.8559 18.7326 19.8501 18.7629 19.8501C18.7932 19.8502 18.8232 19.8562 18.8512 19.8678C18.8791 19.8795 18.9045 19.8965 18.9259 19.9179C18.9473 19.9393 18.9642 19.9648 18.9757 19.9927C20.0667 22.6389 21.0249 23.9274 21.9051 23.932H21.9096C22.334 23.932 22.7916 23.6225 23.269 23.0109C23.7829 22.3538 24.3165 21.3654 24.9009 19.9896C24.912 19.9608 24.9288 19.9344 24.9504 19.9122C24.9719 19.89 24.9976 19.8723 25.0261 19.8602C25.0546 19.8481 25.0853 19.8419 25.1162 19.8419C25.1472 19.8419 25.1778 19.8481 25.2063 19.8602C25.2348 19.8723 25.2606 19.89 25.2821 19.9122C25.3036 19.9344 25.3205 19.9608 25.3316 19.9896C25.3427 20.0185 25.3478 20.0492 25.3468 20.0801C25.3457 20.111 25.3384 20.1414 25.3253 20.1694C24.7251 21.5828 24.1713 22.605 23.6323 23.2942C23.0553 24.0331 22.4917 24.3927 21.9101 24.3927Z" fill="#FF454E"/>
<path id="Vector_10" d="M20.6375 16.0461C20.2334 15.7897 19.9097 15.575 20.354 15.2849C20.8034 14.9012 21.1429 15.0075 21.1331 15.2902C21.1479 15.8744 21.1901 16.2585 20.6375 16.0461Z" fill="#FF454E"/>
<path id="Vector_11" d="M23.1862 16.0461C23.5903 15.7897 23.914 15.575 23.4694 15.2849C23.0203 14.9012 22.6808 15.0075 22.6905 15.2902C22.6758 15.8744 22.6335 16.2585 23.1862 16.0461Z" fill="#FF454E"/>
</g>
</svg>
